# xmcd
#
# Track frame offsets:
# 150
# 26042
# 51539
# 77873
# 115013
# 136162
# 161319
# 183346
# 208533
# 231708
#
# Disc length: 3382 seconds
#
#
# Revision: 0
# Processed by: cddbd v1.4PL0 Copyright (c) Steve Scherf et al.
# Submitted via: FreeRIP 2.00 
#
DISCID=870d340a
DTITLE=Live at Luther College [CD1]
DYEAR=1900
DGENRE=Acoustic
TTITLE0=One Sweet World
TTITLE1=#41
TTITLE2=Tripping Billies
TTITLE3=Jimi Thing
TTITLE4=Satellite
TTITLE5=Crash Into Me
TTITLE6=Deed Is Done
TTITLE7=Lover Lay Down
TTITLE8=What Would You Say
TTITLE9=Minarets
EXTD=
EXTT0=
EXTT1=
EXTT2=
EXTT3=
EXTT4=
EXTT5=
EXTT6=
EXTT7=
EXTT8=
EXTT9=
PLAYORDER=
